{
	"patcher" : 	{
		"fileversion" : 1,
		"appversion" : 		{
			"major" : 5,
			"minor" : 1,
			"revision" : 9
		}
,
		"rect" : [ 791.0, 183.0, 307.0, 466.0 ],
		"bglocked" : 0,
		"defrect" : [ 791.0, 183.0, 307.0, 466.0 ],
		"openrect" : [ 0.0, 0.0, 0.0, 0.0 ],
		"openinpresentation" : 1,
		"default_fontsize" : 12.0,
		"default_fontface" : 0,
		"default_fontname" : "Arial",
		"gridonopen" : 0,
		"gridsize" : [ 15.0, 15.0 ],
		"gridsnaponopen" : 0,
		"toolbarvisible" : 1,
		"boxanimatetime" : 200,
		"imprint" : 0,
		"enablehscroll" : 1,
		"enablevscroll" : 1,
		"devicewidth" : 0.0,
		"boxes" : [ 			{
				"box" : 				{
					"maxclass" : "newobj",
					"text" : "prepend mode",
					"patching_rect" : [ 135.0, 105.0, 88.0, 20.0 ],
					"id" : "obj-5",
					"fontname" : "Arial",
					"numinlets" : 1,
					"numoutlets" : 1,
					"fontsize" : 12.0,
					"outlettype" : [ "" ]
				}

			}
, 			{
				"box" : 				{
					"maxclass" : "toggle",
					"patching_rect" : [ 135.0, 75.0, 20.0, 20.0 ],
					"id" : "obj-3",
					"numinlets" : 1,
					"numoutlets" : 1,
					"outlettype" : [ "int" ]
				}

			}
, 			{
				"box" : 				{
					"maxclass" : "inlet",
					"patching_rect" : [ 135.0, 30.0, 25.0, 25.0 ],
					"id" : "obj-2",
					"numinlets" : 0,
					"numoutlets" : 1,
					"outlettype" : [ "" ],
					"presentation_rect" : [ 119.0, 34.0, 0.0, 0.0 ],
					"comment" : "note value in"
				}

			}
, 			{
				"box" : 				{
					"maxclass" : "inlet",
					"patching_rect" : [ 45.0, 30.0, 25.0, 25.0 ],
					"id" : "obj-1",
					"numinlets" : 0,
					"numoutlets" : 1,
					"outlettype" : [ "" ],
					"comment" : "messages to nslider"
				}

			}
, 			{
				"box" : 				{
					"maxclass" : "nslider",
					"patching_rect" : [ 45.0, 150.0, 77.0, 288.75 ],
					"presentation" : 1,
					"id" : "obj-36",
					"numinlets" : 2,
					"numoutlets" : 2,
					"bgcolor" : [ 1.0, 1.0, 1.0, 0.0 ],
					"outlettype" : [ "int", "int" ],
					"presentation_rect" : [ -4.0, -63.0, 51.799999, 194.25 ],
					"ignoreclick" : 1,
					"bordercolor" : [ 1.0, 1.0, 1.0, 0.0 ]
				}

			}
 ],
		"lines" : [ 			{
				"patchline" : 				{
					"source" : [ "obj-5", 0 ],
					"destination" : [ "obj-36", 0 ],
					"hidden" : 0,
					"midpoints" : [ 144.5, 137.0, 54.5, 137.0 ]
				}

			}
, 			{
				"patchline" : 				{
					"source" : [ "obj-3", 0 ],
					"destination" : [ "obj-5", 0 ],
					"hidden" : 0,
					"midpoints" : [  ]
				}

			}
, 			{
				"patchline" : 				{
					"source" : [ "obj-2", 0 ],
					"destination" : [ "obj-3", 0 ],
					"hidden" : 0,
					"midpoints" : [  ]
				}

			}
, 			{
				"patchline" : 				{
					"source" : [ "obj-1", 0 ],
					"destination" : [ "obj-36", 0 ],
					"hidden" : 0,
					"midpoints" : [  ]
				}

			}
 ]
	}

}
