{
	"patcher" : 	{
		"fileversion" : 1,
		"appversion" : 		{
			"major" : 5,
			"minor" : 1,
			"revision" : 9
		}
,
		"rect" : [ 393.0, 117.0, 306.0, 492.0 ],
		"bglocked" : 0,
		"defrect" : [ 393.0, 117.0, 306.0, 492.0 ],
		"openrect" : [ 0.0, 0.0, 0.0, 0.0 ],
		"openinpresentation" : 0,
		"default_fontsize" : 11.0,
		"default_fontface" : 0,
		"default_fontname" : "Arial",
		"gridonopen" : 0,
		"gridsize" : [ 15.0, 15.0 ],
		"gridsnaponopen" : 0,
		"toolbarvisible" : 1,
		"boxanimatetime" : 200,
		"imprint" : 0,
		"enablehscroll" : 1,
		"enablevscroll" : 1,
		"devicewidth" : 0.0,
		"boxes" : [ 			{
				"box" : 				{
					"maxclass" : "comment",
					"text" : "...or the patch (does not have focus but) is allowed to listen to keys using the shift shortcut",
					"linecount" : 3,
					"patching_rect" : [ 120.0, 345.0, 160.0, 44.0 ],
					"numinlets" : 1,
					"id" : "obj-10",
					"fontname" : "Arial",
					"numoutlets" : 0,
					"presentation_rect" : [ 116.0, 364.0, 0.0, 0.0 ],
					"fontsize" : 11.0
				}

			}
, 			{
				"box" : 				{
					"maxclass" : "comment",
					"text" : "either the patch has focus and there is no other patch that is listening to keys...",
					"linecount" : 3,
					"patching_rect" : [ 120.0, 225.0, 150.0, 44.0 ],
					"numinlets" : 1,
					"id" : "obj-6",
					"fontname" : "Arial",
					"numoutlets" : 0,
					"fontsize" : 11.0
				}

			}
, 			{
				"box" : 				{
					"maxclass" : "newobj",
					"text" : "!- 1",
					"patching_rect" : [ 90.0, 150.0, 32.5, 19.0 ],
					"numinlets" : 2,
					"id" : "obj-16",
					"fontname" : "Arial",
					"numoutlets" : 1,
					"outlettype" : [ "int" ],
					"fontsize" : 11.0
				}

			}
, 			{
				"box" : 				{
					"maxclass" : "newobj",
					"text" : "r anylistentokeys",
					"patching_rect" : [ 90.0, 120.0, 92.0, 19.0 ],
					"numinlets" : 0,
					"id" : "obj-50",
					"fontname" : "Arial",
					"numoutlets" : 1,
					"outlettype" : [ "" ],
					"fontsize" : 11.0
				}

			}
, 			{
				"box" : 				{
					"maxclass" : "toggle",
					"patching_rect" : [ 90.0, 180.0, 20.0, 20.0 ],
					"numinlets" : 1,
					"id" : "obj-14",
					"numoutlets" : 1,
					"outlettype" : [ "int" ]
				}

			}
, 			{
				"box" : 				{
					"maxclass" : "newobj",
					"text" : "t b i",
					"patching_rect" : [ 90.0, 210.0, 31.0, 19.0 ],
					"numinlets" : 1,
					"id" : "obj-13",
					"fontname" : "Arial",
					"numoutlets" : 2,
					"outlettype" : [ "bang", "int" ],
					"fontsize" : 11.0
				}

			}
, 			{
				"box" : 				{
					"maxclass" : "newobj",
					"text" : "&&",
					"patching_rect" : [ 75.0, 240.0, 32.5, 19.0 ],
					"numinlets" : 2,
					"id" : "obj-12",
					"fontname" : "Arial",
					"numoutlets" : 1,
					"outlettype" : [ "int" ],
					"fontsize" : 11.0
				}

			}
, 			{
				"box" : 				{
					"maxclass" : "inlet",
					"patching_rect" : [ 75.0, 30.0, 25.0, 25.0 ],
					"numinlets" : 0,
					"id" : "obj-1",
					"numoutlets" : 1,
					"outlettype" : [ "" ],
					"comment" : "active 1/0"
				}

			}
, 			{
				"box" : 				{
					"maxclass" : "outlet",
					"patching_rect" : [ 75.0, 420.0, 25.0, 25.0 ],
					"numinlets" : 1,
					"id" : "obj-9",
					"numoutlets" : 0,
					"comment" : ""
				}

			}
, 			{
				"box" : 				{
					"maxclass" : "newobj",
					"text" : "t b i",
					"patching_rect" : [ 90.0, 345.0, 31.0, 19.0 ],
					"numinlets" : 1,
					"id" : "obj-8",
					"fontname" : "Arial",
					"numoutlets" : 2,
					"outlettype" : [ "bang", "int" ],
					"fontsize" : 11.0
				}

			}
, 			{
				"box" : 				{
					"maxclass" : "toggle",
					"patching_rect" : [ 75.0, 75.0, 20.0, 20.0 ],
					"numinlets" : 1,
					"id" : "obj-7",
					"numoutlets" : 1,
					"outlettype" : [ "int" ]
				}

			}
, 			{
				"box" : 				{
					"maxclass" : "toggle",
					"patching_rect" : [ 90.0, 315.0, 20.0, 20.0 ],
					"numinlets" : 1,
					"id" : "obj-5",
					"numoutlets" : 1,
					"outlettype" : [ "int" ]
				}

			}
, 			{
				"box" : 				{
					"maxclass" : "newobj",
					"text" : "||",
					"patching_rect" : [ 75.0, 375.0, 31.0, 19.0 ],
					"numinlets" : 2,
					"id" : "obj-3",
					"fontname" : "Arial",
					"numoutlets" : 1,
					"outlettype" : [ "int" ],
					"fontsize" : 11.0
				}

			}
, 			{
				"box" : 				{
					"maxclass" : "newobj",
					"text" : "r #1listentokeys",
					"patching_rect" : [ 90.0, 285.0, 87.0, 19.0 ],
					"numinlets" : 0,
					"id" : "obj-2",
					"fontname" : "Arial",
					"numoutlets" : 1,
					"outlettype" : [ "" ],
					"fontsize" : 11.0
				}

			}
 ],
		"lines" : [ 			{
				"patchline" : 				{
					"source" : [ "obj-2", 0 ],
					"destination" : [ "obj-5", 0 ],
					"hidden" : 0,
					"midpoints" : [  ]
				}

			}
, 			{
				"patchline" : 				{
					"source" : [ "obj-1", 0 ],
					"destination" : [ "obj-7", 0 ],
					"hidden" : 0,
					"midpoints" : [  ]
				}

			}
, 			{
				"patchline" : 				{
					"source" : [ "obj-8", 0 ],
					"destination" : [ "obj-3", 0 ],
					"hidden" : 0,
					"midpoints" : [  ]
				}

			}
, 			{
				"patchline" : 				{
					"source" : [ "obj-8", 1 ],
					"destination" : [ "obj-3", 1 ],
					"hidden" : 0,
					"midpoints" : [  ]
				}

			}
, 			{
				"patchline" : 				{
					"source" : [ "obj-5", 0 ],
					"destination" : [ "obj-8", 0 ],
					"hidden" : 0,
					"midpoints" : [  ]
				}

			}
, 			{
				"patchline" : 				{
					"source" : [ "obj-3", 0 ],
					"destination" : [ "obj-9", 0 ],
					"hidden" : 0,
					"midpoints" : [  ]
				}

			}
, 			{
				"patchline" : 				{
					"source" : [ "obj-7", 0 ],
					"destination" : [ "obj-12", 0 ],
					"hidden" : 0,
					"midpoints" : [  ]
				}

			}
, 			{
				"patchline" : 				{
					"source" : [ "obj-12", 0 ],
					"destination" : [ "obj-3", 0 ],
					"hidden" : 0,
					"midpoints" : [  ]
				}

			}
, 			{
				"patchline" : 				{
					"source" : [ "obj-13", 0 ],
					"destination" : [ "obj-12", 0 ],
					"hidden" : 0,
					"midpoints" : [  ]
				}

			}
, 			{
				"patchline" : 				{
					"source" : [ "obj-13", 1 ],
					"destination" : [ "obj-12", 1 ],
					"hidden" : 0,
					"midpoints" : [  ]
				}

			}
, 			{
				"patchline" : 				{
					"source" : [ "obj-14", 0 ],
					"destination" : [ "obj-13", 0 ],
					"hidden" : 0,
					"midpoints" : [  ]
				}

			}
, 			{
				"patchline" : 				{
					"source" : [ "obj-50", 0 ],
					"destination" : [ "obj-16", 0 ],
					"hidden" : 0,
					"midpoints" : [  ]
				}

			}
, 			{
				"patchline" : 				{
					"source" : [ "obj-16", 0 ],
					"destination" : [ "obj-14", 0 ],
					"hidden" : 0,
					"midpoints" : [  ]
				}

			}
 ]
	}

}
